<svg xmlns="http://www.w3.org/2000/svg" xmlns:xlink="http://www.w3.org/1999/xlink" viewBox="0 0 391.69 392.19"><defs><style>.a{fill:url(#a);}.b{fill:url(#b);}</style><linearGradient id="a" x1="207.96" y1="344.98" x2="436.96" y2="33.98" gradientTransform="matrix(1, 0, 0, -1, -56, 356)" gradientUnits="userSpaceOnUse"><stop offset="0" stop-color="#53caf5"/><stop offset="1" stop-color="#9056a3"/></linearGradient><linearGradient id="b" x1="315.95" y1="297.72" x2="357.37" y2="13.55" gradientTransform="matrix(1, 0, 0, -1, -56, 356)" gradientUnits="userSpaceOnUse"><stop offset="0" stop-color="#fee984"/><stop offset="0.08" stop-color="#fedd35"/><stop offset="1" stop-color="#faa719"/></linearGradient></defs><path class="a" d="M444.55,112l-184,329a10,10,0,0,1-17.41.08L55.49,112a10,10,0,0,1,10.45-14.8l184.19,32.92a10.14,10.14,0,0,0,3.56,0L434,97.23A10,10,0,0,1,444.55,112Z" transform="translate(-54.15 -53.91)"/><path class="b" d="M337.87,54,201.71,80.68a5,5,0,0,0-4,4.62L189.3,226.76a5,5,0,0,0,6.12,5.17l37.91-8.75a5,5,0,0,1,6,5.87L228.09,284.2a5,5,0,0,0,6.35,5.79l23.42-7.11a5,5,0,0,1,6.35,5.79l-17.9,86.63A5,5,0,0,0,255.4,379l2-3.1,111-221.43a5,5,0,0,0-5.41-7.15l-39,7.53a5,5,0,0,1-5.75-6.29L343.64,60.3A5,5,0,0,0,337.87,54Z" transform="translate(-54.15 -53.91)"/></svg>