<svg xmlns="http://www.w3.org/2000/svg" width="22" height="22"><path data-name="Path 1" d="M11 0A11.144 11.144 0 000 11.29a11.286 11.286 0 007.369 10.667c.578.149.489-.273.489-.56V19.44c-3.335.4-3.47-1.866-3.694-2.244-.452-.793-1.521-.995-1.2-1.373.759-.4 1.534.1 2.431 1.462a2.282 2.282 0 002.556.656 3.206 3.206 0 01.853-1.535c-3.456-.636-4.9-2.8-4.9-5.378A5.051 5.051 0 015.093 7.7a4.515 4.515 0 01.12-3.03 4.96 4.96 0 013.028 1.144 11.323 11.323 0 015.565.008 4.856 4.856 0 012.981-1.108 4.546 4.546 0 01.135 2.986 5.052 5.052 0 011.2 3.34c0 2.58-1.45 4.749-4.916 5.375a3.263 3.263 0 01.936 2.3v2.84c.02.227 0 .452.369.452A11.281 11.281 0 0022 11.293 11.147 11.147 0 0011 0z"/></svg>