<svg xmlns="http://www.w3.org/2000/svg" width="22" height="22"><path data-name="Path 3" d="M10.997 5.356A5.644 5.644 0 1016.641 11a5.636 5.636 0 00-5.644-5.644zm0 9.312A3.668 3.668 0 1114.665 11a3.676 3.676 0 01-3.668 3.668zm5.875-10.859a1.316 1.316 0 10.933.386 1.317 1.317 0 00-.933-.385zM21.999 11c0-1.519.014-3.024-.072-4.541A6.087 6.087 0 0015.54.072C14.021-.013 12.516 0 11 0S7.976-.014 6.46.072A6.087 6.087 0 00.073 6.459C-.012 7.978.001 9.483.001 11s-.014 3.024.072 4.541a6.087 6.087 0 006.387 6.387C7.979 22.013 9.484 22 11 22s3.024.014 4.54-.072a6.087 6.087 0 006.387-6.387c.089-1.516.072-3.022.072-4.541zm-2.422 6.489a3.754 3.754 0 01-2.091 2.091c-1.447.575-4.884.446-6.489.446s-5.044.129-6.492-.443a3.754 3.754 0 01-2.091-2.091c-.572-1.45-.443-4.887-.443-6.492s-.129-5.044.443-6.492a3.5 3.5 0 01.831-1.26 3.557 3.557 0 011.26-.831c1.447-.572 4.887-.443 6.492-.443s5.044-.129 6.492.443a3.754 3.754 0 012.091 2.091c.572 1.447.443 4.887.443 6.492s.13 5.042-.446 6.489z"/></svg>