<svg xmlns="http://www.w3.org/2000/svg" width="22" height="22"><path data-name="Path 6" d="M11 0a11 11 0 1011 11A11 11 0 0011 0zm7.518 15.032c-.155.359-.8.621-1.987.807a5.451 5.451 0 00-.191.705.342.342 0 01-.359.262h-.009c-.275 0-.568-.129-1.144-.129a2.331 2.331 0 00-1.659.608 3.309 3.309 0 01-2.182.807 3.383 3.383 0 01-2.151-.807 2.339 2.339 0 00-1.659-.608 11.307 11.307 0 00-1.144.138.352.352 0 01-.368-.266 5.568 5.568 0 00-.191-.71c-.612-.093-1.987-.333-2.018-.949a.314.314 0 01.262-.328 4.442 4.442 0 003.016-2.533s0-.009.009-.013a.663.663 0 00.071-.554c-.151-.35-.794-.475-1.065-.585-.7-.275-.8-.594-.754-.812a.759.759 0 01.971-.457 1.671 1.671 0 00.7.186.622.622 0 00.293-.062 8.771 8.771 0 01.169-3.42 4.028 4.028 0 013.73-2.408h.3a3.992 3.992 0 013.739 2.408 8.766 8.766 0 01.169 3.42.558.558 0 00.253.062 1.75 1.75 0 00.652-.186.81.81 0 01.6 0 .617.617 0 01.461.528c0 .288-.253.537-.763.736-.062.027-.138.049-.217.075-.288.093-.727.231-.843.51a.68.68 0 00.071.554s0 .009.009.013a4.442 4.442 0 003.011 2.529.341.341 0 01.217.479z"/></svg>