<svg xmlns="http://www.w3.org/2000/svg" width="22" height="22"><path data-name="Path 5" d="M11 0a11 11 0 1011 11A11 11 0 0011 0zm5.286 8.292c.007.115.007.236.007.354a7.767 7.767 0 01-11.95 6.534 5.847 5.847 0 00.658.034 5.471 5.471 0 003.386-1.164 2.728 2.728 0 01-2.549-1.891 2.982 2.982 0 001.23-.049 2.725 2.725 0 01-2.183-2.676V9.4a2.729 2.729 0 001.23.346A2.729 2.729 0 014.9 7.477a2.673 2.673 0 01.371-1.375 7.741 7.741 0 005.623 2.851 2.735 2.735 0 014.655-2.495 5.388 5.388 0 001.731-.656 2.714 2.714 0 01-1.2 1.5 5.394 5.394 0 001.571-.425 5.716 5.716 0 01-1.365 1.415z"/></svg>